<svg xmlns="http://www.w3.org/2000/svg" viewBox="0 0 931.89 558.79">
  <defs>
    <style>
      .a {
        fill: #fff;
      }
    </style>
  </defs>
  <path class="a" d="M628,536.21l28.07,0s.06.91,0,4c-.19,9-.09,18,0,27,0,1.26,0,3.72,0,5.08a46.83,46.83,0,0,0,3.29-3.76c11-12.94,22.89-24.8,39.27-30.67,20.6-7.39,41-7.12,60,4.56,14.46,8.9,20.64,23.64,23.21,39.69a210.21,210.21,0,0,1,2.44,31.31c.29,34.31.21,109.17.21,109.17H756.69s0-74,.1-108.3c0-14.2-.33-28.35-5.33-41.87-7.3-19.74-22.87-29.6-43.79-28.25-22.9,1.47-38.15,14.77-50.58,32.42-.36.52-.93,1.38-.93,1.38s-.1,3.43-.11,4.83c0,44.47,0,139.69,0,139.69l-28,.09Z" transform="translate(-87.01 -246.21)"/>
  <path class="a" d="M594.56,625.56c-.79,29.73-12.25,53.9-33,73.78-16.21,15.52-35.66,24.34-58,25.84-26.22,1.74-49.88-5.64-69.47-23.32-17.78-16.05-25.87-37-27.63-60.69-2.16-29.08,6.25-54.52,25.55-76.32,32.19-36.36,89.8-42.42,128.57-13.11,18.85,14.24,28.8,34,32.41,57.15C593.84,614.63,594.08,620.47,594.56,625.56Zm-30,9.44c-.14-25.66-5.45-49.9-20.17-71.4C535.7,550.86,524.56,541,508.92,538c-26.35-5-49.63,6.86-61.45,31-7.15,14.61-9.82,30.32-10.65,46.38-1.47,28.29,3.21,55.17,19.57,78.95,13.29,19.33,31.47,29.39,55.39,26.47,23.51-2.87,37-17.94,45.11-38.83C562.72,667,564.64,651.12,564.59,635Z" transform="translate(-87.01 -246.21)"/>
  <path class="a" d="M905.39,608c-20.48,0-41,.1-61.43-.09-2,0-4.93,0-4.93,0s-.37,3-.53,4.86c-2.65,29.51,6.93,54.25,30.66,71.88,30.36,22.56,63.77,26.35,98.36,10.41,19.61-9,32.45-25.57,43.2-43.77,2-3.43,3.81-7,5.87-10.44.59-1,2.72.1,2.25,1.1a180,180,0,0,1-30,45.14c-15.88,17.22-34.36,30.85-57.65,35.68-34.82,7.22-66.63,1.12-92.37-25.21-14.69-15-21.52-33.84-22.36-54.68-1.55-38.21,15.56-67.27,45.24-89.65,17.35-13.08,37.17-20.09,59-19.91,22.86.19,43.58,5.9,57.06,26.61,6,9.16,8.57,19.47,9.11,30.23.56,11-7.15,17.74-20,17.81-20.47.12-40.95,0-61.42,0Zm-11.68-2.21c16.12,0,32.25,0,48.38,0,9.17,0,13.49-4.63,12.94-13.66-.14-2.33-.1-4.67-.38-7-2-16.28-8-30.27-23.3-38.37-14.44-7.64-29.68-6.65-44.65-2.38-28.64,8.18-42.11,31-46.92,57.7-.25,1.35-.57,3.67-.57,3.67s3,.06,4.62.05Q868.76,605.76,893.71,605.8Z" transform="translate(-87.01 -246.21)"/>
  <path class="a" d="M344.45,489.93c0,11.66,0,28.25,0,39.91,0,3.13,0,6.29,0,6.29s3.24,0,6.54,0c11.65,0,27.88,0,39.53.06v2.48c-12.32.11-29,.17-41.27,0-2.06,0-4.86,0-4.86,0s-.05,2.95-.05,4.59c.16,43.64-.08,87.28.31,130.92a66.57,66.57,0,0,0,4.17,22.38c6.23,16.66,22.28,17.72,34.43,9.84,2.89-1.88,5.36-4.42,8-6.66,1-.88,2.39.56,1.83,1.3-14,15-30.17,24.61-51.71,19.91-10.17-2.21-17-8.91-19.8-18.49a100.33,100.33,0,0,1-4.2-25.42c-.58-21-.19-42-.19-63h-.11q0-34,0-68c0-4.15,0-7.28,0-7.28s-3.34-.06-7.12-.09c-10-.07-22.58,0-32.56,0v-2.64c16.44,0,33.93-5.36,46.57-16.31C332.07,512.76,340.67,500,344.45,489.93Z" transform="translate(-87.01 -246.21)"/>
  <path class="a" d="M248,697.54C233.32,715,213.82,723.34,191.66,725c-29.23,2.19-58.11-1-86.49-8.36-7.15-1.84-12-3-12-3s-.15-5.44-.29-12.93c-.09-4.66,0-9.33,0-14H93c0-7.33,0-14.66,0-22,0-1.08,0-5.54,0-6.63a48.68,48.68,0,0,1,3,6.13c7.69,17.6,18.6,32.55,34.72,43.43,19,12.84,40.17,15.81,62.43,13.75,9.52-.88,18.68-3,26.95-8.1,14.14-8.72,20.15-21.83,21.06-38,1.12-20.11-8.58-34.29-24.18-45.29-15.77-11.11-33.66-18-51.26-25.42-18.06-7.65-36.36-14.85-52.37-26.51C98.33,567.19,87.43,553.71,87,534c-.59-28.67,13.23-48.48,38-61.2a86.15,86.15,0,0,1,39.57-10.77,326.3,326.3,0,0,1,86.56,8.76c2,.46,5.24,1.26,5.24,1.26s-.07,3.24-.11,5.11c-.21,11.82-.05,23.65-.11,35.48,0,1.39-.06,5.09-.06,6.52,0,0-2.68-4.47-3.25-5.71-16.75-36.94-59.13-52-94-47.3-7.41.75-21.22,3.86-30.26,10.16-22.45,14.83-25.27,49.58-5.43,70.15,11.91,12.34,27.1,19.58,42.45,26.49,19.54,8.8,39.25,17.26,58.45,26.76,13.51,6.7,25.36,16,32.82,29.65C268,649.79,264.46,677.91,248,697.54Z" transform="translate(-87.01 -246.21)"/>
  <path class="a" d="M571.16,246.21l26.91.07s0,189.67,0,191.27c1.15-1.14,44-43.26,63.77-62.35C676.53,361,693.46,351,714.53,349.61a24.88,24.88,0,0,1,5.25,0v25.61s-1.08-.18-4.35-.67c-10-1.48-20.06-2.92-30.15-3.85s-18.68,2.62-26,10.07S634.1,406,634.1,406s1.49,2.48,2.43,3.94c18,28,35.36,56.43,54,84,7.46,11.09,17.47,20.45,26.32,30.6l3.21,3.22H686.4c-2.43-.13-5.46-2.43-6.93-4.6-11.37-16.8-22.68-33.66-33.5-50.81-9.15-14.5-17.71-29.37-26.34-44.18-1-1.79-2.61-4.54-2.61-4.54s-3.11,2.81-4.74,4.41C606.21,434,598,442.37,598,442.37s-.29,12.53-.29,19.63l.35,66.09H571.16Z" transform="translate(-87.01 -246.21)"/>
  <path class="a" d="M469.19,346a71.85,71.85,0,0,1,35.15,8c6.77,3.49,12.59,8.13,16.49,14.83,5.68,9.76,4.94,20.83-3.41,28.35a82.43,82.43,0,0,1-19.89,12.9c-20,9.45-40.5,17.81-60.4,27.44a83,83,0,0,0-20.65,14.6c-12.56,11.93-14.43,33.49-5,46.83,10.22,14.5,30.82,20.53,46.68,12.94,17.63-8.44,30.12-22.24,38.21-39.92,2.59-5.68,6.17-9.8,12.21-11.52,9.31-2.65,15.17,1.52,15.29,11.19.09,7.32-.62,14.65-.38,21.95a85.14,85.14,0,0,0,2.11,16.78c2,8.43,7.6,10,14.44,4.68,1-.8,2.52,1.23,1.45,2-5.91,4-11.59,8.64-18.07,11.37-14.33,6.05-26.89-2-27.89-17.52-.55-8.43.09-16.94.14-25.41,0-1.2,0-4.36,0-4.36-9.42,15.56-22.73,27.83-35.57,37-13.93,10-29,15.4-46.4,11.19-32.95-8-43.34-41.8-20.37-66.76,11.35-12.33,25.39-21,40.28-28.14,13.63-6.56,27.66-12.27,41.52-18.34,15-6.56,23.67-20.93,21.9-36.25-2.2-19.05-17-31.07-37.17-30.57-14.39.37-25.13,6.84-32.75,18.71-3.5,5.45-6.52,11.22-9.59,16.94-1.46,2.72-1.94,3.6-1.94,3.6l-17.72-18.66,2.84-1.73C417.83,357.72,446.89,345,469.19,346Z" transform="translate(-87.01 -246.21)"/>
  <path class="a" d="M360.56,380.23c-10-55.77-55.9-98.6-115.47-102-36.71-2.1-68.83,10.26-95.22,36C109,354,102,415.13,127.34,465a76.41,76.41,0,0,0,7.55,12.41c18.69,27.13,44.19,44.32,76.47,51,36.45,7.49,70.33,0,99.73-22.06C353,474.86,369.85,432.26,360.56,380.23ZM312.22,482.71C299,505,280,520.34,254.57,525.38c-45.2,9-81.63-10.82-99-55.62a98.45,98.45,0,0,1-5.23-16.14c-8.16-36.6-8.73-73.05,4.32-108.74,9.27-25.33,24.84-45.53,50.42-56.36,37.39-15.82,85.46-6.36,109.12,38,10.81,20.24,15.41,42.06,16.8,64.73.28,4.66.5,9.32.65,12.19C331.45,432.59,326.45,458.82,312.22,482.71Z" transform="translate(-87.01 -246.21)"/>
  <path class="a" d="M916.51,518.66c-10.08-15.5-32.78-50.52-32.78-50.52,1.28-2.72,2.46-4.89,3.58-7.36,14.52-32.06,16.27-44.47,17.7-55.75,1.5-11.89.79-23.58-3.57-34.91-.52-1.36-1.5-4.1-1.5-4.1l-3.72,1.69c-5.14,2.36-10.32,4.66-15.6,6.69-1.62.62-3.88,1.55-3.88,1.55s1.47,2.52,2.37,4c5.43,8.76,10.75,17.6,15.71,26.63a28.1,28.1,0,0,1,2.24,22.23,188.24,188.24,0,0,1-11.9,30.93,58.43,58.43,0,0,1-3.17,5.47s-39.36-59-57.4-86.17c-3-4.48-5.05-7.51-5.05-7.51s3.39-2.36,7.89-4.94c12.62-7.25,24.58-15.41,33.79-26.9,6.66-8.33,10.87-17.69,8.69-28.69-3.49-17.68-23.16-30.64-42.27-32-30.54-2.34-51.89,26.84-47.44,54.81,2.73,15.94,9.58,30.07,18.33,43.39l2.6,4s-2.25,1.7-3.85,2.94q-15.21,11.73-30,24c-21.85,18.31-28.91,41.84-22.45,69.13,7.84,33.1,44,58.46,80.94,44.59,15.57-5.84,28.25-15.32,38.88-27.75,4.24-4.87,5.36-6,5.36-6,1,1.36,6,8,7,9.31,9.71,12.11,21.31,21.49,36.75,25.19a19.83,19.83,0,0,0,4.3.1A22.46,22.46,0,0,0,916.51,518.66Zm-117.58-224c5.61-13,19.47-14.83,29.5-11.91,11.93,3.48,20.1,15,21.49,29.6,2.37,24.7-8.43,42.29-28.41,55.37-1.16.76-3.17,2-3.17,2s-1.34-1.81-2.08-3c-3.86-6.43-8.9-14.12-12.5-21.59C795.94,328.9,792.36,309.93,798.93,294.67ZM829.44,509c-22,0-35.41-9.09-46.48-22.45-10-12.12-16.27-26-17-41.8-.69-14.32,4.71-27,12.38-38.8,5.36-8.26,12.56-14.53,20.56-20.08,1.38-1,3.75-2.79,3.75-2.79l2.65,4.12c20.19,31.5,62.74,98.39,62.74,98.39C857.79,498.86,843.21,509.56,829.44,509Z" transform="translate(-87.01 -246.21)"/>
  <path class="a" d="M811.19,282.76" transform="translate(-87.01 -246.21)"/>
  <path class="a" d="M810.25,280.45" transform="translate(-87.01 -246.21)"/>
  <g>
    <path class="a" d="M187.05,804.39l-12.89-20.11a13.73,13.73,0,0,1-1.81.08h-8.11v20h-7.36V750h14.63a24.3,24.3,0,0,1,10,2,15.55,15.55,0,0,1,6.89,5.76,16.24,16.24,0,0,1,2.51,9.15,19.47,19.47,0,0,1-2.24,9.26,14.55,14.55,0,0,1-6.86,6.4l13.79,21.91Zm-6.33-30.19a10.67,10.67,0,0,0,2.62-7.08,11.1,11.1,0,0,0-1.1-4.75,9.44,9.44,0,0,0-3.49-3.88,11,11,0,0,0-6-1.54h-8.48v20.33h7.95Q178.11,777.28,180.72,774.2Z" transform="translate(-87.01 -246.21)"/>
    <path class="a" d="M273.76,750v7H245.49v16.57h25.24v7H245.49v16.79h29.33v7.08H238.13V750Z" transform="translate(-87.01 -246.21)"/>
    <path class="a" d="M348.41,790.08H327.34l-5.83,14.31h-7.28l23.95-56.7h.46l23.95,56.7H354.1Zm-2.5-6.32-7.8-19.88L330,783.76Z" transform="translate(-87.01 -246.21)"/>
    <path class="a" d="M411.63,750v47.36h27.89v7.08H404.27V750Z" transform="translate(-87.01 -246.21)"/>
    <path class="a" d="M574.81,750v7H546.54v16.57h25.24v7H546.54v16.79h29.33v7.08H539.19V750Z" transform="translate(-87.01 -246.21)"/>
    <path class="a" d="M642.72,757.1a22.45,22.45,0,0,0-6.29-1,11.44,11.44,0,0,0-7.09,2,6.75,6.75,0,0,0,.46,11,39.83,39.83,0,0,0,8.75,4.26,38.63,38.63,0,0,1,7.16,3.27,14.51,14.51,0,0,1,4.86,4.9,14.94,14.94,0,0,1,1.93,7.94,14.66,14.66,0,0,1-2.2,7.91,15.22,15.22,0,0,1-6.25,5.57,21,21,0,0,1-9.51,2,29.77,29.77,0,0,1-9.78-1.62,33,33,0,0,1-8.26-4.1l3.25-5.8a26.52,26.52,0,0,0,6.75,3.58,21.14,21.14,0,0,0,7.35,1.47,13.35,13.35,0,0,0,7.7-2.26,7.61,7.61,0,0,0,3.29-6.7,7.29,7.29,0,0,0-2.76-6,30.33,30.33,0,0,0-7.77-4.18,61.31,61.31,0,0,1-7.7-3.39,16.2,16.2,0,0,1-5.26-4.55,11.68,11.68,0,0,1-2.2-7.27,13.08,13.08,0,0,1,4.51-10.35q4.5-4,11.71-4.18A32.42,32.42,0,0,1,651.82,754L649,759.66A33.16,33.16,0,0,0,642.72,757.1Z" transform="translate(-87.01 -246.21)"/>
    <path class="a" d="M728,750v7H713.28v47.44h-7.35V757H691.61v-7Z" transform="translate(-87.01 -246.21)"/>
    <path class="a" d="M795.59,790.08H774.52l-5.83,14.31h-7.28l24-56.7h.46l23.95,56.7h-8.49Zm-2.5-6.32-7.8-19.88-8.11,19.88Z" transform="translate(-87.01 -246.21)"/>
    <path class="a" d="M879.8,750v7H865.1v47.44h-7.35V757H843.42v-7Z" transform="translate(-87.01 -246.21)"/>
    <path class="a" d="M958.85,750v7H930.58v16.57h25.24v7H930.58v16.79h29.33v7.08H923.23V750Z" transform="translate(-87.01 -246.21)"/>
  </g>
</svg>
